<svg width="194" height="283" viewBox="0 0 194 283" fill="none" xmlns="http://www.w3.org/2000/svg">
<path d="M179.287 283H14.7128C10.8121 282.995 7.07238 281.358 4.31415 278.446C1.55592 275.534 0.00440431 271.587 0 267.469V15.5308C0.00440279 11.4132 1.55592 7.46556 4.31415 4.55399C7.07238 1.64242 10.8121 0.00464756 14.7128 0H179.287C183.188 0.00464917 186.928 1.64242 189.686 4.55399C192.444 7.46556 193.996 11.4132 194 15.5308V267.469C193.996 271.587 192.444 275.534 189.686 278.446C186.928 281.358 183.188 282.995 179.287 283Z" fill="#E6E6E6"/>
<path opacity="0.75" d="M179.47 273H14.5295C13.3286 272.999 12.1773 272.494 11.3282 271.597C10.479 270.7 10.0014 269.484 10 268.216V14.7842C10.0014 13.5158 10.479 12.2998 11.3282 11.4029C12.1773 10.506 13.3286 10.0014 14.5295 10H179.47C180.671 10.0014 181.823 10.506 182.672 11.4029C183.521 12.2998 183.999 13.5158 184 14.7842V268.216C183.999 269.484 183.521 270.7 182.672 271.597C181.823 272.494 180.671 272.999 179.47 273Z" fill="#FAFAFA"/>
<path d="M96.5 6C97.3284 6 98 5.55228 98 5C98 4.44772 97.3284 4 96.5 4C95.6716 4 95 4.44772 95 5C95 5.55228 95.6716 6 96.5 6Z" fill="#FAFAFA" fill-opacity="0.75"/>
<path d="M163.585 177H30.4168C30.3062 177 30.2002 176.954 30.1221 176.872C30.0439 176.789 30 176.678 30 176.562V109.438C30 109.322 30.0439 109.211 30.122 109.128C30.2002 109.046 30.3062 109 30.4168 109C30.5273 109 30.6333 109.046 30.7114 109.128C30.7896 109.211 30.8335 109.322 30.8335 109.438V176.123H163.585C163.695 176.124 163.801 176.17 163.878 176.252C163.956 176.335 164 176.446 164 176.562C164 176.678 163.956 176.789 163.878 176.871C163.801 176.953 163.695 177 163.585 177Z" fill="#E88465"/>
<path d="M58.8126 172H47.1874C46.8726 172 46.5708 171.864 46.3482 171.622C46.1256 171.38 46.0004 171.052 46 170.709V153.291C46.0004 152.948 46.1256 152.62 46.3482 152.378C46.5708 152.136 46.8726 152 47.1874 152H58.8126C59.1274 152 59.4292 152.136 59.6518 152.378C59.8744 152.62 59.9996 152.948 60 153.291V170.709C59.9996 171.052 59.8744 171.38 59.6518 171.622C59.4292 171.864 59.1274 172 58.8126 172Z" fill="#E36037" fill-opacity="0.76"/>
<path d="M80.8126 172H69.1874C68.8726 172 68.5708 171.862 68.3482 171.617C68.1256 171.372 68.0004 171.039 68 170.693V136.307C68.0004 135.961 68.1256 135.628 68.3482 135.383C68.5708 135.138 68.8726 135 69.1874 135H80.8126C81.1274 135 81.4292 135.138 81.6518 135.383C81.8744 135.628 81.9996 135.961 82 136.307V170.693C81.9996 171.039 81.8744 171.372 81.6518 171.617C81.4292 171.862 81.1274 172 80.8126 172Z" fill="#E36037" fill-opacity="0.76"/>
<path d="M102.813 172H91.1874C90.8726 172 90.5708 171.864 90.3482 171.622C90.1256 171.38 90.0004 171.052 90 170.709V153.291C90.0004 152.948 90.1256 152.62 90.3482 152.378C90.5708 152.136 90.8726 152 91.1874 152H102.813C103.127 152 103.429 152.136 103.652 152.378C103.874 152.62 104 152.948 104 153.291V170.709C104 171.052 103.874 171.38 103.652 171.622C103.429 171.864 103.127 172 102.813 172Z" fill="#E36037" fill-opacity="0.76"/>
<path d="M124.813 172H113.187C112.88 172.007 112.582 171.881 112.359 171.651C112.137 171.42 112.008 171.103 112 170.769V130.231C112.008 129.897 112.137 129.58 112.359 129.349C112.582 129.119 112.88 128.993 113.187 129H124.813C125.12 128.993 125.418 129.119 125.64 129.349C125.863 129.58 125.992 129.897 126 130.231V170.769C125.992 171.103 125.863 171.42 125.64 171.651C125.418 171.881 125.12 172.007 124.813 172Z" fill="#E36037" fill-opacity="0.76"/>
<path d="M146.813 172H135.187C134.873 172 134.571 171.863 134.348 171.62C134.126 171.377 134 171.048 134 170.704V118.296C134 117.952 134.126 117.623 134.348 117.38C134.571 117.137 134.873 117 135.187 117H146.813C147.127 117 147.429 117.137 147.652 117.38C147.874 117.623 148 117.952 148 118.296V170.704C148 171.048 147.874 171.377 147.652 171.62C147.429 171.863 147.127 172 146.813 172Z" fill="#E36037" fill-opacity="0.76"/>
<path d="M52.5 147C53.8807 147 55 145.881 55 144.5C55 143.119 53.8807 142 52.5 142C51.1193 142 50 143.119 50 144.5C50 145.881 51.1193 147 52.5 147Z" fill="#E88465"/>
<path d="M74.5 130C75.8807 130 77 128.657 77 127C77 125.343 75.8807 124 74.5 124C73.1193 124 72 125.343 72 127C72 128.657 73.1193 130 74.5 130Z" fill="#E88465"/>
<path d="M96.5 147C97.8807 147 99 145.881 99 144.5C99 143.119 97.8807 142 96.5 142C95.1193 142 94 143.119 94 144.5C94 145.881 95.1193 147 96.5 147Z" fill="#E88465"/>
<path d="M119.5 121C120.881 121 122 119.881 122 118.5C122 117.119 120.881 116 119.5 116C118.119 116 117 117.119 117 118.5C117 119.881 118.119 121 119.5 121Z" fill="#E88465"/>
<path d="M141.5 112C142.881 112 144 110.657 144 109C144 107.343 142.881 106 141.5 106C140.119 106 139 107.343 139 109C139 110.657 140.119 112 141.5 112Z" fill="#E88465"/>
<path d="M97.0989 145L75.1474 127.451L53.4957 144.76L53 144.054L75.1474 126.348L96.9946 143.815L118.704 118.456L118.792 118.418L140.691 109L141 109.818L119.188 119.199L97.0989 145Z" fill="#E88465"/>
</svg>
